# xmcd CD database file
#
# Track frame offsets:
#	150
#	16927
#	31344
#	39272
#	49087
#	55541
#	62513
#	70843
#	87512
#	98239
#	109877
#	121222
#	172411
#	178725
#	182553
#	193197
#	205604
#	212596
#	225282
#	232564
#
# Disc length: 3271 seconds
#
# Revision: 0
# Processed by: cddbd v1.5.2PL0 Copyright (c) Steve Scherf et al.
# Submitted via: CDex 1.51
#
DISCID=020cc514
DTITLE=The Rat Pack - All the Way
DYEAR=2001
DGENRE=Jazz
TTITLE0=All the Way
TTITLE1=Bewitched
TTITLE2=Birth of the Blues
TTITLE3=Chicago
TTITLE4=A Foggy Day in London Town
TTITLE5=Goody Goody
TTITLE6=The Lady is a Tramp
TTITLE7=The Lonesome Road
TTITLE8=Nancy
TTITLE9=Night and Day
TTITLE10=Please be Kind
TTITLE11=Ratpack Monologue
TTITLE12=This Cant be Love
TTITLE13=Too Marvellous for Word
TTITLE14=When Your Love has Gone
TTITLE15=Your Nobody to Somebody
TTITLE16=Introducing the Band
TTITLE17=Oldest Crap Game in New York
TTITLE18=Ring a Ding Ding
TTITLE19=Birth of the Blues (closing tune)
EXTD=YEAR: 2001
EXTT0=
EXTT1=
EXTT2=
EXTT3=
EXTT4=
EXTT5=
EXTT6=
EXTT7=
EXTT8=
EXTT9=
EXTT10=
EXTT11=
EXTT12=
EXTT13=
EXTT14=
EXTT15=
EXTT16=
EXTT17=
EXTT18=
EXTT19=
PLAYORDER=
